<svg xmlns="http://www.w3.org/2000/svg" viewBox="0 0 976 758"><defs><style>.a{fill:#f0f0f0;}.b{fill:#213548;}.c{fill:#df4141;}.d{fill:#fff;}.e{fill:none;stroke:#fff;stroke-miterlimit:10;stroke-width:6px;}</style></defs><title>mentor</title><ellipse class="a" cx="489" cy="379" rx="408.68" ry="379"/><path class="b" d="M433.43,339.05c-22.47-6.64-42.62-24.49-49.63-35.62-12-19.12,2.47-24.07-2.44-77.38-4.5-48.8-71.69-101.28-153.37-106.62a201.23,201.23,0,0,0-26,0V207h-3V119.63c-28.1,2.23-56.95,10.54-86.32,26.6C11.06,201.8-29.22,319.26,49.27,432.7c58.89,82.93,4.37,148.45,4.37,148.45s2.63,21.53,46.12,50.46,96.89,9.31,96.89,9.31,17.6-62.59,75.15-56.83c41.26,6.08,99.18-2,113.82-16.2,13.7-13.25-2.39-29.85,8.53-66.86-37.43-3.66-58-21.51-60-46.66,41.55,4,58.67-9.15,70.54-23.67-.31-8.54-1.18-26.68-2-38.84C439.46,381.23,453.53,345,433.43,339.05Z" transform="translate(-8 -7)"/><path class="c" d="M202,207V119.42q-1.5.09-3,.21V207Z" transform="translate(-8 -7)"/><path class="b" d="M942.73,432.7c-58.89,82.93-4.37,148.45-4.37,148.45s-2,16.57-31.89,40.17c-4.18,3.3-8.9,6.74-14.23,10.29-14.77,9.83-30.69,14-45.26,15.34a131.65,131.65,0,0,1-51.63-6s-17.6-62.59-75.15-56.83c-41.26,6.08-99.18-2-113.82-16.2-13.7-13.25,2.39-29.85-8.53-66.86,37.43-3.66,58-21.51,60-46.66-41.55,4-58.67-9.15-70.54-23.67.31-8.54,1.18-26.68,2-38.84-36.73-10.63-50.8-46.88-30.7-52.81,22.47-6.64,42.62-24.49,49.63-35.62,12-19.12-2.47-24.07,2.44-77.38,4.5-48.8,71.69-101.28,153.37-106.62a201.23,201.23,0,0,1,26,0q1.5.09,3,.21c28.1,2.23,57,10.54,86.32,26.6C980.94,201.8,1021.22,319.26,942.73,432.7Z" transform="translate(-8 -7)"/><path class="c" d="M240.25,273V236.5a39.61,39.61,0,0,0-39.5-39.5h0a39.62,39.62,0,0,0-39.5,39.5V273Z" transform="translate(-8 -7)"/><path class="a" d="M-191,560" transform="translate(-8 -7)"/><path class="d" d="M257.51,303.56l0-.05c-.11-.16-.22-.34-.35-.52l0-.05-.49-.68a69.35,69.35,0,0,0-4.48-5.76c-5.16-6.62-11.81-15.81-11.81-23.5H161.17c0,7.69-6.65,16.88-11.81,23.5a69.35,69.35,0,0,0-4.48,5.76l-.49.68,0,.05c-.13.18-.24.36-.35.52l0,.05a68,68,0,1,0,113.52,0Z" transform="translate(-8 -7)"/><path class="c" d="M149.83,339.65c2-3.07,4-6,6.1-9l3.16-4.39,3.21-4.34,2.9-3.9,2.71,5.05c1.94,3.6,3.85,7.22,5.7,10.86.94,1.82,1.84,3.65,2.75,5.48s1.83,3.64,2.7,5.49L168.43,344c2-4,4-8,6-12s4.14-7.89,6.22-11.83,4.27-7.82,6.41-11.72l6.61-11.6,9.79-17.18L209,299q2.25,7.83,4.38,15.68c1.43,5.24,2.77,10.5,4.08,15.77S220,341,221.3,346.26s2.38,10.6,3.45,15.94l-13-.42c1.29-3.13,2.66-6.24,4-9.35s2.77-6.2,4.16-9.3,2.87-6.17,4.35-9.23,3-6.13,4.54-9.17l2.23-4.4,2.37,3.43c1.57,2.27,3.14,4.54,4.66,6.85s3,4.63,4.48,7c-2.28-1.61-4.49-3.29-6.67-5s-4.34-3.42-6.49-5.15l4.6-1q-1,5-2.08,10c-.72,3.33-1.5,6.65-2.27,10s-1.59,6.61-2.46,9.89-1.69,6.57-2.6,9.83L219,386.46l-7.3-20.66c-1.81-5.13-3.49-10.3-5.2-15.45s-3.32-10.35-4.84-15.56-3.11-10.4-4.56-15.63-2.88-10.47-4.26-15.72l15.35,2.09-7.09,11.31c-2.42,3.74-4.82,7.49-7.27,11.21s-4.93,7.42-7.48,11.08-5.09,7.33-7.68,11l-7.25,10.17L168,349.18c-.6-1.94-1.13-3.92-1.69-5.88s-1.12-3.92-1.64-5.9c-1.08-3.94-2.1-7.9-3.09-11.88l5.61,1.15L162.94,330l-4.3,3.28C155.75,335.46,152.84,337.6,149.83,339.65Z" transform="translate(-8 -7)"/><path class="d" d="M209.07,422.28a32.44,32.44,0,0,1,.59,5c.06,1.62.07,3.23,0,4.81s-.23,3.14-.41,4.69-.45,3.08-.76,4.6l-.48-3.74a73.9,73.9,0,0,1,4.85,7.75,66.65,66.65,0,0,1,3.82,8.36l.85,2.29-.49,1c-.49.93-1,1.85-1.57,2.76s-1.14,1.82-1.75,2.71a35.22,35.22,0,0,1-4.29,5.17,35.86,35.86,0,0,1-.44-6.7c0-1.08.08-2.15.17-3.22s.19-2.12.35-3.16l.36,3.24a64.59,64.59,0,0,1-5.51-7.35,74.9,74.9,0,0,1-4.49-8l-1.07-2.21.59-1.53c.55-1.44,1.15-2.87,1.82-4.29s1.37-2.81,2.16-4.18,1.64-2.74,2.56-4.07A31.56,31.56,0,0,1,209.07,422.28Z" transform="translate(-8 -7)"/><path class="d" d="M259,400.61a32.19,32.19,0,0,1,3.34,3.75c1,1.29,1.91,2.6,2.75,3.95s1.61,2.7,2.35,4.08,1.39,2.78,2,4.2l-2.53-2.79a73.14,73.14,0,0,1,8.41,3.57,65.86,65.86,0,0,1,7.92,4.65l2,1.4.14,1.05c.14,1,.22,2.1.3,3.17s.11,2.14.12,3.22a35.17,35.17,0,0,1-.55,6.69,36.06,36.06,0,0,1-4.2-5.23c-.6-.91-1.17-1.81-1.71-2.74s-1.06-1.85-1.53-2.79l2.16,2.45a66.15,66.15,0,0,1-8.74-2.86,74.93,74.93,0,0,1-8.24-3.94l-2.14-1.2-.4-1.59c-.37-1.51-.7-3-1-4.56s-.49-3.09-.64-4.67-.22-3.18-.23-4.8A30.83,30.83,0,0,1,259,400.61Z" transform="translate(-8 -7)"/><path class="d" d="M287.4,354.25a33.14,33.14,0,0,1,4.88,1.15c1.55.5,3.07,1,4.52,1.66s2.88,1.29,4.27,2,2.74,1.47,4.06,2.28l-3.68-.83a71.78,71.78,0,0,1,8.94-1.9,64.67,64.67,0,0,1,9.16-.73l2.45,0,.72.78c.71.78,1.39,1.6,2.06,2.43s1.32,1.69,2,2.57a35.5,35.5,0,0,1,3.39,5.79,36.37,36.37,0,0,1-6.45-1.87c-1-.4-2-.82-3-1.26s-1.92-.91-2.85-1.41l3.17.77a66.65,66.65,0,0,1-8.79,2.66,74.42,74.42,0,0,1-9,1.5l-2.44.25L299.53,369c-1.16-1-2.3-2.07-3.4-3.18s-2.17-2.25-3.2-3.46-2-2.47-2.95-3.8A32.84,32.84,0,0,1,287.4,354.25Z" transform="translate(-8 -7)"/><path class="d" d="M284.11,300a31.2,31.2,0,0,1,4.66-1.86c1.55-.48,3.1-.91,4.65-1.23s3.09-.59,4.64-.81,3.09-.36,4.63-.46L299.2,297a74.51,74.51,0,0,1,6.24-6.69,64.7,64.7,0,0,1,7.08-5.85l2-1.42,1,.23c1,.23,2.06.51,3.08.8s2.05.63,3.07,1a35.7,35.7,0,0,1,6.1,2.8,35,35,0,0,1-6.35,2.16c-1.05.26-2.1.49-3.15.68s-2.1.36-3.15.48l3-1.19a65.75,65.75,0,0,1-5.68,7.23,74.22,74.22,0,0,1-6.52,6.39l-1.86,1.61-1.63-.18c-1.54-.16-3.08-.37-4.61-.65s-3.07-.59-4.61-1-3.06-.87-4.59-1.42A32.29,32.29,0,0,1,284.11,300Z" transform="translate(-8 -7)"/><path class="d" d="M114.16,302.85a32.92,32.92,0,0,1-4.77-1.58c-1.49-.63-3-1.3-4.35-2s-2.75-1.53-4.08-2.35-2.6-1.71-3.84-2.63l3.59,1.15a74.86,74.86,0,0,1-9.07,1.11,67.17,67.17,0,0,1-9.19-.07l-2.44-.2-.65-.84c-.64-.83-1.24-1.71-1.84-2.59s-1.17-1.8-1.72-2.74A35.63,35.63,0,0,1,72.93,284a35.76,35.76,0,0,1,6.25,2.43c1,.48,1.93,1,2.85,1.51s1.84,1.07,2.72,1.65l-3.09-1a67.32,67.32,0,0,1,9-1.89,74.73,74.73,0,0,1,9.11-.7l2.45,0,1.14,1.18q1.61,1.68,3.11,3.46c1,1.21,2,2.44,2.88,3.73s1.79,2.64,2.61,4A31.58,31.58,0,0,1,114.16,302.85Z" transform="translate(-8 -7)"/><path class="d" d="M112.71,357.22a32.41,32.41,0,0,1-4.81,1.44c-1.58.35-3.16.63-4.74.82s-3.13.32-4.69.41-3.11.09-4.66.05l3.61-1.12a75.74,75.74,0,0,1-6.8,6.12,66.6,66.6,0,0,1-7.56,5.21l-2.12,1.24-1-.32c-1-.32-2-.69-3-1.07s-2-.81-3-1.25a35.31,35.31,0,0,1-5.83-3.32,35.71,35.71,0,0,1,6.51-1.6c1.07-.16,2.14-.3,3.2-.4s2.13-.17,3.18-.2l-3.13.92a66.72,66.72,0,0,1,6.29-6.71,74.14,74.14,0,0,1,7-5.8l2-1.44,1.61.32c1.52.29,3,.64,4.54,1.05s3,.86,4.5,1.4,3,1.14,4.45,1.81A32.47,32.47,0,0,1,112.71,357.22Z" transform="translate(-8 -7)"/><path class="d" d="M142.71,402.59a31.76,31.76,0,0,1-3.11,3.94c-1.1,1.19-2.23,2.33-3.41,3.39s-2.38,2.06-3.61,3-2.5,1.86-3.79,2.72l2.31-3a75,75,0,0,1-2.06,8.9,65.18,65.18,0,0,1-3.2,8.61l-1,2.23-1,.32c-1,.32-2,.58-3.07.84s-2.09.48-3.15.68a35.22,35.22,0,0,1-6.68.63,35.14,35.14,0,0,1,4.42-5.05c.79-.75,1.58-1.47,2.4-2.16s1.63-1.37,2.48-2l-2,2.55a65.39,65.39,0,0,1,1.31-9.1,72.64,72.64,0,0,1,2.45-8.8l.8-2.32,1.5-.67c1.42-.62,2.85-1.21,4.32-1.74s3-1,4.49-1.43,3.09-.78,4.69-1.07A31.92,31.92,0,0,1,142.71,402.59Z" transform="translate(-8 -7)"/><ellipse class="c" cx="776" cy="214.5" rx="24.23" ry="51.5"/><ellipse class="c" cx="839" cy="335.5" rx="60.23" ry="28.34" transform="translate(89.57 845) rotate(-56.66)"/><ellipse class="c" cx="753" cy="467.5" rx="36.31" ry="77.16" transform="translate(-98.86 731.55) rotate(-49.64)"/><path class="d" d="M906.47,621.32c-4.18,3.3-8.9,6.74-14.23,10.29-14.77,9.83-30.69,14-45.26,15.34-70.82-160.27-63-380-63-380C792.88,324.24,819.29,504.16,906.47,621.32Z" transform="translate(-8 -7)"/><line class="e" x1="803.81" y1="502.23" x2="720" y2="443"/><polyline class="e" points="745.5 437.5 761.5 449.5 767.64 476.67"/><circle class="d" cx="720" cy="443" r="8"/><circle class="d" cx="745" cy="437" r="8"/><polyline class="e" points="749.79 481.45 765.38 493.98 793.23 493.19"/><circle class="d" cx="749.19" cy="481.09" r="8"/><line class="e" x1="789.98" y1="377.73" x2="829.48" y2="321.84"/><polyline class="e" points="833.15 338.84 825.15 349.51 807.03 353.61"/><circle class="d" cx="829.48" cy="321.84" r="5.34"/><circle class="d" cx="833.49" cy="338.51" r="5.34"/></svg>